<svg id="Group_22398" data-name="Group 22398" xmlns="http://www.w3.org/2000/svg" width="163.859" height="27.995" viewBox="0 0 163.859 27.995">
  <path id="Path_14020" data-name="Path 14020" d="M1507.6,1041.18h4.908l-7.189-15.553h-4.735l2.931,6.5h-5.862l2.931-6.5h-4.735l-7.189,15.553h4.908l2-4.424H1505.6Z" transform="translate(-1348.644 -1013.184)" fill="#f59c00"/>
  <rect id="Rectangle_2113" data-name="Rectangle 2113" width="4.839" height="15.553" transform="translate(133.029 12.442)" fill="#f59c00"/>
  <path id="Path_14021" data-name="Path 14021" d="M1258.489,978.3l-6.359-20.171h-11.475v24.885h4.977V962.758h3.219l6.217,20.253h8.4V958.127h-4.977Z" transform="translate(-1134.93 -955.016)" fill="#f59c00"/>
  <path id="Path_14022" data-name="Path 14022" d="M1115.586,935.627l-14.931,2.765v4.7l14.931-2.7Z" transform="translate(-1014.285 -935.627)" fill="#f59c00"/>
  <path id="Path_14023" data-name="Path 14023" d="M1069.632,999.5l11.924-.2v-4.666l-11.924.195v-5.206h-4.977v20.53h20.875v-4.631h-15.9Z" transform="translate(-983.262 -982.161)" fill="#f59c00"/>
  <path id="Path_14024" data-name="Path 14024" d="M853.954,958.127h-4.631l-5.949,18.382-5.526-14.027h-4.942l7.949,20.53h5.253l5.668-17.978,5.668,17.978h4.908L854.3,958.127Z" transform="translate(-783.551 -955.016)" fill="#f59c00"/>
  <path id="Path_14025" data-name="Path 14025" d="M718.155,994.465h7.776v-4.839h-4.7Z" transform="translate(-684.665 -982.161)" fill="#f59c00"/>
  <path id="Path_14026" data-name="Path 14026" d="M489.108,958.127l4.524,13.687h-9.048l4.524-13.687h-4.839l-8.364,24.885h4.977l2.171-6.567h12.11l2.171,6.567h4.977l-8.364-24.885Z" transform="translate(-475.905 -955.016)" fill="#f59c00"/>
  <rect id="Rectangle_2114" data-name="Rectangle 2114" width="4.977" height="20.53" transform="translate(44.378 7.465)" fill="#f59c00"/>
  <path id="Path_14027" data-name="Path 14027" d="M683.155,989.627v20.53h4.839v-20.53Z" transform="translate(-654.503 -982.161)" fill="#f59c00"/>
  <circle id="Ellipse_118" data-name="Ellipse 118" cx="2.8" cy="2.8" r="2.8" transform="translate(132.649 2.488)" fill="#f59c00"/>
</svg>
